G04 #@! TF.GenerationSoftware,KiCad,Pcbnew,7.0.2*
G04 #@! TF.CreationDate,2023-07-02T13:04:34+10:00*
G04 #@! TF.ProjectId,dpoint,64706f69-6e74-42e6-9b69-6361645f7063,rev?*
G04 #@! TF.SameCoordinates,Original*
G04 #@! TF.FileFunction,Legend,Top*
G04 #@! TF.FilePolarity,Positive*
%FSLAX46Y46*%
G04 Gerber Fmt 4.6, Leading zero omitted, Abs format (unit mm)*
G04 Created by KiCad (PCBNEW 7.0.2) date 2023-07-02 13:04:34*
%MOMM*%
%LPD*%
G01*
G04 APERTURE LIST*
%ADD10C,0.150000*%
G04 APERTURE END LIST*
D10*
X60591851Y-23470834D02*
X60858518Y-24270834D01*
X60858518Y-24270834D02*
X61125184Y-23470834D01*
X61734708Y-24232739D02*
X61658517Y-24270834D01*
X61658517Y-24270834D02*
X61506136Y-24270834D01*
X61506136Y-24270834D02*
X61429946Y-24232739D01*
X61429946Y-24232739D02*
X61391851Y-24194643D01*
X61391851Y-24194643D02*
X61353755Y-24118453D01*
X61353755Y-24118453D02*
X61353755Y-23889881D01*
X61353755Y-23889881D02*
X61391851Y-23813691D01*
X61391851Y-23813691D02*
X61429946Y-23775596D01*
X61429946Y-23775596D02*
X61506136Y-23737500D01*
X61506136Y-23737500D02*
X61658517Y-23737500D01*
X61658517Y-23737500D02*
X61734708Y-23775596D01*
X62420422Y-24232739D02*
X62344231Y-24270834D01*
X62344231Y-24270834D02*
X62191850Y-24270834D01*
X62191850Y-24270834D02*
X62115660Y-24232739D01*
X62115660Y-24232739D02*
X62077565Y-24194643D01*
X62077565Y-24194643D02*
X62039469Y-24118453D01*
X62039469Y-24118453D02*
X62039469Y-23889881D01*
X62039469Y-23889881D02*
X62077565Y-23813691D01*
X62077565Y-23813691D02*
X62115660Y-23775596D01*
X62115660Y-23775596D02*
X62191850Y-23737500D01*
X62191850Y-23737500D02*
X62344231Y-23737500D01*
X62344231Y-23737500D02*
X62420422Y-23775596D01*
X66883166Y-24480295D02*
X66806976Y-24442200D01*
X66806976Y-24442200D02*
X66692690Y-24442200D01*
X66692690Y-24442200D02*
X66578404Y-24480295D01*
X66578404Y-24480295D02*
X66502214Y-24556485D01*
X66502214Y-24556485D02*
X66464119Y-24632676D01*
X66464119Y-24632676D02*
X66426023Y-24785057D01*
X66426023Y-24785057D02*
X66426023Y-24899343D01*
X66426023Y-24899343D02*
X66464119Y-25051724D01*
X66464119Y-25051724D02*
X66502214Y-25127914D01*
X66502214Y-25127914D02*
X66578404Y-25204105D01*
X66578404Y-25204105D02*
X66692690Y-25242200D01*
X66692690Y-25242200D02*
X66768881Y-25242200D01*
X66768881Y-25242200D02*
X66883166Y-25204105D01*
X66883166Y-25204105D02*
X66921262Y-25166009D01*
X66921262Y-25166009D02*
X66921262Y-24899343D01*
X66921262Y-24899343D02*
X66768881Y-24899343D01*
X67264119Y-25242200D02*
X67264119Y-24442200D01*
X67264119Y-24442200D02*
X67721262Y-25242200D01*
X67721262Y-25242200D02*
X67721262Y-24442200D01*
X68102214Y-25242200D02*
X68102214Y-24442200D01*
X68102214Y-24442200D02*
X68292690Y-24442200D01*
X68292690Y-24442200D02*
X68406976Y-24480295D01*
X68406976Y-24480295D02*
X68483166Y-24556485D01*
X68483166Y-24556485D02*
X68521261Y-24632676D01*
X68521261Y-24632676D02*
X68559357Y-24785057D01*
X68559357Y-24785057D02*
X68559357Y-24899343D01*
X68559357Y-24899343D02*
X68521261Y-25051724D01*
X68521261Y-25051724D02*
X68483166Y-25127914D01*
X68483166Y-25127914D02*
X68406976Y-25204105D01*
X68406976Y-25204105D02*
X68292690Y-25242200D01*
X68292690Y-25242200D02*
X68102214Y-25242200D01*
X63260184Y-27871242D02*
X63526851Y-28671242D01*
X63526851Y-28671242D02*
X63793517Y-27871242D01*
X64060184Y-28366480D02*
X64669708Y-28366480D01*
X64364946Y-28671242D02*
X64364946Y-28061718D01*
X64652866Y-20392888D02*
X64919533Y-21192888D01*
X64919533Y-21192888D02*
X65186199Y-20392888D01*
X65452866Y-20888126D02*
X66062390Y-20888126D01*
X63498345Y-20647117D02*
G75*
G03*
X63498345Y-20647117I-232428J0D01*
G01*
M02*
