# Blender v2.93.1 OBJ File: 'pen.blend'
# www.blender.org
o Cylinder
v -0.007000 0.018472 0.000000
v -0.007000 0.148472 0.000000
v -0.004950 0.018472 -0.004950
v -0.004950 0.148472 -0.004950
v 0.000000 0.018472 -0.007000
v 0.000000 0.148472 -0.007000
v 0.004950 0.018472 -0.004950
v 0.004950 0.148472 -0.004950
v 0.007000 0.018472 0.000000
v 0.007000 0.148472 0.000000
v 0.004950 0.018472 0.004950
v 0.004950 0.148472 0.004950
v -0.000000 0.018472 0.007000
v 0.000000 0.148472 0.007000
v -0.004950 0.018472 0.004950
v -0.004950 0.148472 0.004950
v 0.000000 0.000000 -0.000000
v 0.000000 0.148472 0.000000
vt 1.000000 1.000000
vt 0.875000 0.500000
vt 1.000000 0.500000
vt 0.875000 1.000000
vt 0.750000 0.500000
vt 0.750000 1.000000
vt 0.625000 0.500000
vt 0.625000 1.000000
vt 0.500000 0.500000
vt 0.500000 1.000000
vt 0.375000 0.500000
vt 0.375000 1.000000
vt 0.250000 0.500000
vt 0.250000 1.000000
vt 0.125000 0.500000
vt 0.125000 1.000000
vt 0.000000 0.500000
vt 0.500000 0.500000
vt 0.125000 0.500000
vt 1.000000 0.500000
vt 0.750000 0.500000
vt 0.375000 0.500000
vt 0.625000 0.500000
vt 0.250000 0.500000
vt 0.875000 0.500000
vt 0.419706 0.419706
vt 0.250000 0.490000
vt 0.250000 0.250000
vt 0.080294 0.419706
vt 0.010000 0.250000
vt 0.080294 0.080294
vt 0.250000 0.010000
vt 0.419706 0.080294
vt 0.490000 0.250000
vt 0.000000 1.000000
vn -0.9239 -0.0000 -0.3827
vn -0.3827 0.0000 -0.9239
vn 0.3827 0.0000 -0.9239
vn 0.9239 0.0000 -0.3827
vn 0.9239 0.0000 0.3827
vn 0.3827 -0.0000 0.9239
vn -0.3827 0.0000 0.9239
vn -0.9239 0.0000 0.3827
vn 0.8720 -0.3304 0.3612
vn -0.8720 -0.3304 0.3612
vn -0.8720 -0.3304 -0.3612
vn 0.3612 -0.3304 -0.8720
vn 0.3612 -0.3304 0.8720
vn 0.8720 -0.3304 -0.3612
vn -0.3612 -0.3304 0.8720
vn -0.3612 -0.3304 -0.8720
vn -0.0000 1.0000 0.0000
s off
f 2/1/1 3/2/1 1/3/1
f 4/4/2 5/5/2 3/2/2
f 6/6/3 7/7/3 5/5/3
f 8/8/4 9/9/4 7/7/4
f 10/10/5 11/11/5 9/9/5
f 12/12/6 13/13/6 11/11/6
f 14/14/7 15/15/7 13/13/7
f 16/16/8 1/17/8 15/15/8
f 9/9/9 11/11/9 17/18/9
f 15/15/10 1/17/10 17/19/10
f 1/3/11 3/2/11 17/20/11
f 5/5/12 7/7/12 17/21/12
f 11/11/13 13/13/13 17/22/13
f 7/7/14 9/9/14 17/23/14
f 13/13/15 15/15/15 17/24/15
f 3/2/16 5/5/16 17/25/16
f 4/26/17 2/27/17 18/28/17
f 2/27/17 16/29/17 18/28/17
f 16/29/17 14/30/17 18/28/17
f 14/30/17 12/31/17 18/28/17
f 12/31/17 10/32/17 18/28/17
f 10/32/17 8/33/17 18/28/17
f 8/33/17 6/34/17 18/28/17
f 6/34/17 4/26/17 18/28/17
f 2/1/1 4/4/1 3/2/1
f 4/4/2 6/6/2 5/5/2
f 6/6/3 8/8/3 7/7/3
f 8/8/4 10/10/4 9/9/4
f 10/10/5 12/12/5 11/11/5
f 12/12/6 14/14/6 13/13/6
f 14/14/7 16/16/7 15/15/7
f 16/16/8 2/35/8 1/17/8
